<svg width="17" height="18" viewBox="0 0 17 18" fill="none" xmlns="http://www.w3.org/2000/svg">
<path d="M10.1097 13.3593C9.00597 13.3593 8.12296 14.2423 8.12296 15.3461C8.12296 16.4498 9.00597 17.3328 10.1097 17.3328C11.2135 17.3328 12.0965 16.4498 12.0965 15.3461C12.0965 14.2699 11.1859 13.3593 10.1097 13.3593ZM10.1097 16.1187C9.69581 16.1187 9.36469 15.7876 9.36469 15.3737C9.36469 14.9598 9.69581 14.6286 10.1097 14.6286C10.5236 14.6286 10.8548 14.9598 10.8548 15.3737C10.8548 15.76 10.496 16.1187 10.1097 16.1187Z" fill="white"/>
<path d="M4.86689 13.3593C3.76314 13.3593 2.88014 14.2423 2.88014 15.3461C2.88014 16.4498 3.76314 17.3328 4.86689 17.3328C5.97065 17.3328 6.85365 16.4498 6.85365 15.3461C6.85365 14.2699 5.94305 13.3593 4.86689 13.3593ZM4.86689 16.1187C4.45299 16.1187 4.12186 15.7876 4.12186 15.3737C4.12186 14.9598 4.45299 14.6286 4.86689 14.6286C5.2808 14.6286 5.61193 14.9598 5.61193 15.3737C5.61193 15.76 5.2808 16.1187 4.86689 16.1187Z" fill="white"/>
<path d="M14.442 0.666161H16.0872C16.4183 0.666161 16.6667 0.914505 16.6667 1.27322C16.6667 1.63194 16.3631 1.90788 16.032 1.90788H14.3868C14.3316 1.90788 14.2764 1.93548 14.2764 1.99066L13.1175 10.2412C12.9795 11.2622 12.0965 12.0348 11.0755 12.0348H3.45962C3.04572 12.0348 2.687 11.7589 2.57662 11.3726L0.865804 6.21252V6.15733C0.783022 5.88139 0.865804 5.57786 1.03137 5.35711C1.22452 5.13636 1.50046 4.99839 1.7764 4.99839H2.71247C3.05536 4.99839 3.33333 5.27636 3.33333 5.61925C3.33333 5.96214 3.05536 6.24011 2.71247 6.24011H2.2179L3.70797 10.7655H11.1031C11.517 10.7655 11.8757 10.462 11.9309 10.0481L12.4828 6.24011H12.2875C11.9446 6.24011 11.6667 5.96214 11.6667 5.61925C11.6667 5.27636 11.9446 4.99839 12.2875 4.99839H12.676L13.1175 1.8251C13.2002 1.16285 13.7797 0.666161 14.442 0.666161Z" fill="white"/>
<path d="M6.88269 3.43671C6.88269 3.0958 7.15906 2.81943 7.49998 2.81943C7.84089 2.81943 8.11726 3.0958 8.11726 3.43671V7.89659C8.11726 8.23751 7.84089 8.51387 7.49998 8.51387C7.15906 8.51387 6.88269 8.23751 6.88269 7.89659V3.43671Z" fill="white"/>
<path d="M5.27004 6.28394C4.92912 6.28394 4.65276 6.00757 4.65276 5.66665C4.65276 5.32574 4.92912 5.04937 5.27004 5.04937H9.72992C10.0708 5.04937 10.3472 5.32574 10.3472 5.66665C10.3472 6.00757 10.0708 6.28394 9.72992 6.28394H5.27004Z" fill="white"/>
<path fill-rule="evenodd" clip-rule="evenodd" d="M6.88269 3.43671C6.88269 3.0958 7.15906 2.81943 7.49998 2.81943C7.84089 2.81943 8.11726 3.0958 8.11726 3.43671L8.11728 5.04939L9.72992 5.04937C10.0708 5.04937 10.3472 5.32574 10.3472 5.66665C10.3472 6.00757 10.0708 6.28394 9.72992 6.28394L8.11728 6.28395L8.11726 7.89659C8.11726 8.23751 7.84089 8.51387 7.49998 8.51387C7.15906 8.51387 6.88269 8.23751 6.88269 7.89659L6.88271 6.28395L5.27004 6.28394C4.92912 6.28394 4.65276 6.00757 4.65276 5.66665C4.65276 5.32574 4.92912 5.04937 5.27004 5.04937L6.88271 5.04939L6.88269 3.43671ZM6.81327 4.97994V3.43673C6.81327 3.05746 7.12073 2.75 7.49999 2.75C7.87926 2.75 8.18672 3.05746 8.18672 3.43673V4.97994H9.72993C10.1092 4.97994 10.4167 5.2874 10.4167 5.66667C10.4167 6.04594 10.1092 6.3534 9.72993 6.3534H8.18672V7.89661C8.18672 8.27588 7.87926 8.58334 7.49999 8.58334C7.12073 8.58334 6.81327 8.27588 6.81327 7.89661V6.3534H5.27006C4.89079 6.3534 4.58333 6.04594 4.58333 5.66667C4.58333 5.2874 4.89079 4.97994 5.27006 4.97994H6.81327Z" fill="white"/>
</svg>
