<svg width="18" height="15" viewBox="0 0 18 15" fill="none" xmlns="http://www.w3.org/2000/svg">
<path d="M9.00396 11.0545C7.11433 11.0545 5.58049 9.52065 5.58049 7.63102C5.58049 5.7414 7.11433 4.20756 9.00396 4.20756C10.8936 4.20756 12.4274 5.7414 12.4274 7.63102C12.4274 9.52065 10.8936 11.0545 9.00396 11.0545ZM9.00396 5.39352C7.77056 5.39352 6.76645 6.39763 6.76645 7.63102C6.76645 8.86442 7.77056 9.86853 9.00396 9.86853C10.2374 9.86853 11.2415 8.86442 11.2415 7.63102C11.2415 6.39763 10.2374 5.39352 9.00396 5.39352Z" fill="white"/>
<path d="M9.00396 14.7626C6.03116 14.7626 3.22439 13.0232 1.29523 10.003C0.457152 8.69843 0.457152 6.57161 1.29523 5.25915C3.23229 2.23891 6.03906 0.499504 9.00396 0.499504C11.9689 0.499504 14.7756 2.23891 16.7048 5.25915C17.5429 6.5637 17.5429 8.69052 16.7048 10.003C14.7756 13.0232 11.9689 14.7626 9.00396 14.7626ZM9.00396 1.68546C6.45019 1.68546 4.00712 3.2193 2.29934 5.89957C1.70636 6.82462 1.70636 8.43752 2.29934 9.36257C4.00712 12.0428 6.45019 13.5767 9.00396 13.5767C11.5577 13.5767 14.0008 12.0428 15.7086 9.36257C16.3016 8.43752 16.3016 6.82462 15.7086 5.89957C14.0008 3.2193 11.5577 1.68546 9.00396 1.68546Z" fill="white"/>
</svg>
