<svg width="14" height="14" viewBox="0 0 14 14" fill="none" xmlns="http://www.w3.org/2000/svg">
<path fill-rule="evenodd" clip-rule="evenodd" d="M7.00002 0.249992C6.5449 0.249992 6.17595 0.618943 6.17595 1.07407V6.17592H1.0741C0.618974 6.17592 0.250023 6.54487 0.250023 6.99999C0.250023 7.45512 0.618973 7.82407 1.0741 7.82407H6.17595V12.9259C6.17595 13.381 6.5449 13.75 7.00002 13.75C7.45515 13.75 7.8241 13.381 7.8241 12.9259V7.82407H12.926C13.3811 7.82407 13.75 7.45512 13.75 6.99999C13.75 6.54487 13.3811 6.17592 12.926 6.17592H7.8241V1.07407C7.8241 0.618943 7.45515 0.249992 7.00002 0.249992Z" fill="white"/>
</svg>
