<svg width="24" height="22" viewBox="0 0 24 22" fill="none" xmlns="http://www.w3.org/2000/svg">
<path fill-rule="evenodd" clip-rule="evenodd" d="M12 6.66103L10.3118 4.37917C9.50723 3.29167 8.22931 2.59928 6.82 2.59928C4.42994 2.59928 2.43334 4.57646 2.43334 7.09423C2.43334 8.27238 2.61864 9.35451 2.94013 10.3594L2.94446 10.3729C3.7185 12.8499 5.32256 14.8959 7.12276 16.4604C8.91523 18.0183 10.7861 18.9969 11.9264 19.3957C11.9323 19.3963 11.9394 19.397 11.9476 19.3975C11.9635 19.3986 11.9812 19.3993 12 19.3993C12.0188 19.3993 12.0365 19.3986 12.0524 19.3975C12.0606 19.397 12.0677 19.3964 12.0736 19.3957C13.2139 18.9969 15.0848 18.0183 16.8772 16.4604C18.6774 14.8959 20.2816 12.8499 21.0556 10.3729L21.0598 10.3594C21.3813 9.3545 21.5667 8.27238 21.5667 7.09423C21.5667 4.57646 19.5701 2.59928 17.18 2.59928C15.7707 2.59928 14.4928 3.29167 13.6882 4.37917L12 6.66103ZM10.4844 1.65577C9.44089 0.927487 8.17616 0.499283 6.82 0.499283C3.23834 0.499283 0.333336 3.44872 0.333336 7.09423C0.333336 8.49816 0.555003 9.79591 0.940003 10.9993C2.78334 16.8982 8.465 20.4257 11.2767 21.3931C11.6733 21.5347 12.3267 21.5347 12.7233 21.3931C15.535 20.4257 21.2167 16.8982 23.06 10.9993C23.445 9.79591 23.6667 8.49816 23.6667 7.09423C23.6667 3.44872 20.7617 0.499283 17.18 0.499283C15.8238 0.499283 14.5591 0.927487 13.5156 1.65577C12.9343 2.06149 12.4216 2.56035 12 3.13018C11.5784 2.56035 11.0657 2.06149 10.4844 1.65577Z" fill="white"/>
</svg>
